<svg width="75" height="74" viewBox="0 0 75 74" fill="none" xmlns="http://www.w3.org/2000/svg">
<path d="M42.45 9.85156C43.7007 11.6084 44.7136 13.549 45.4415 15.6229C46.3499 15.7434 47.2444 15.9073 48.1201 16.1164C48.2673 16.1523 48.4138 16.1883 48.5576 16.2243C48.5936 16.2343 48.6296 16.2436 48.6655 16.2536C48.852 16.3022 49.0378 16.3515 49.2243 16.4067C49.2276 16.4067 49.2309 16.4067 49.2343 16.4101C49.4141 16.4593 49.5932 16.5113 49.7697 16.5666C49.9236 16.6125 50.0767 16.6611 50.2306 16.7138C50.3871 16.7664 50.5443 16.8183 50.7008 16.8736C50.848 16.9229 50.9918 16.9748 51.1383 17.0301C51.2822 17.082 51.426 17.138 51.5692 17.1933C52.415 17.5196 53.2381 17.8925 54.0386 18.3034C54.2311 18.4013 54.4209 18.4992 54.6067 18.6038C54.9271 18.7769 55.2407 18.9568 55.5504 19.1426C55.6843 19.2211 55.8148 19.3031 55.9453 19.3843C56.0073 19.4203 56.0692 19.4596 56.1318 19.4989C56.2723 19.5868 56.4095 19.6787 56.5467 19.7699C56.6805 19.8545 56.8111 19.9464 56.9423 20.0343C58.474 21.0825 59.8886 22.2913 61.1652 23.6299C61.3151 23.7804 61.459 23.9369 61.5995 24.0934C61.7174 24.2206 61.8312 24.3511 61.9458 24.4823C62.1322 24.6948 62.3147 24.9106 62.4912 25.129C62.6024 25.2562 62.707 25.3867 62.8082 25.5212C62.9487 25.7011 63.0893 25.8809 63.2231 26.06C63.3503 26.2298 63.4782 26.403 63.5987 26.5761C63.7259 26.7493 63.8471 26.9258 63.9643 27.1023C64.2028 27.4552 64.4312 27.8109 64.6536 28.1765C64.7682 28.3596 64.8754 28.5421 64.98 28.7286C65.0879 28.915 65.1924 29.1009 65.2936 29.2873C65.5128 29.6922 65.7245 30.1038 65.921 30.5187C66.0029 30.6819 66.0775 30.8484 66.1527 31.0149C66.228 31.178 66.2999 31.3445 66.3718 31.511C66.4371 31.6582 66.4991 31.8054 66.5583 31.9552C66.6136 32.0924 66.6695 32.2296 66.7215 32.3668C66.8554 32.7131 66.9859 33.0661 67.1037 33.4217C67.1757 33.6275 67.2443 33.8333 67.3062 34.0424C67.3095 34.049 67.3129 34.059 67.3162 34.0683C67.3781 34.2675 67.4368 34.4666 67.4927 34.6657C67.6559 35.2371 67.7997 35.8185 67.9236 36.4033C67.9562 36.5504 67.9855 36.7003 68.0148 36.8508C68.0315 36.936 68.0474 37.0206 68.0641 37.1052C68.0834 37.2197 68.1067 37.3336 68.1227 37.4482C68.152 37.6113 68.178 37.7745 68.2013 37.9383C68.2273 38.1015 68.2532 38.268 68.2732 38.4345C68.2832 38.5097 68.2925 38.5816 68.3025 38.6562C68.3159 38.7774 68.3318 38.9013 68.3451 39.0252C68.3585 39.1424 68.3711 39.2603 68.3778 39.3775C68.3978 39.5573 68.4137 39.7371 68.427 39.9163C68.4437 40.1287 68.4564 40.3405 68.4663 40.5563C68.4797 40.7814 68.489 41.0105 68.4923 41.2356C68.499 41.464 68.5023 41.6897 68.5023 41.9182C68.5023 56.5443 56.6006 68.4459 41.9745 68.4459C41.746 68.4459 41.5169 68.4426 41.2918 68.4359C41.0634 68.4326 40.8377 68.4226 40.6126 68.4099C40.3908 68.3999 40.1683 68.3873 39.9466 68.3673H39.9173C39.7082 68.3513 39.5024 68.3313 39.2966 68.312C39.1168 68.2927 38.9403 68.2727 38.7645 68.2534C38.6532 68.2401 38.5453 68.2241 38.4348 68.2108C38.2783 68.1915 38.1211 68.1682 37.968 68.1422C37.9546 68.1422 37.9386 68.1389 37.9253 68.1355C37.7688 68.1129 37.6116 68.0863 37.4585 68.0603C37.3246 68.037 37.1941 68.0143 37.0635 67.9884C36.8711 67.9524 36.6779 67.9164 36.4888 67.8738C35.4532 67.6547 34.4376 67.3777 33.448 67.038C33.2522 66.9728 33.059 66.9042 32.8665 66.8322C32.6774 66.7636 32.4909 66.695 32.3011 66.6198C32.0461 66.5186 31.795 66.414 31.5433 66.3061C31.3867 66.2408 31.2262 66.1723 31.0697 66.097C30.8999 66.0217 30.7268 65.9398 30.557 65.8586C30.3412 65.754 30.1261 65.6495 29.9103 65.5382C29.7338 65.447 29.5573 65.3551 29.3809 65.2605C29.1817 65.1493 28.9793 65.0388 28.7828 64.9242C28.597 64.8197 28.4138 64.7118 28.2307 64.5972C28.2274 64.5939 28.2207 64.5939 28.2174 64.5906C27.8811 64.3881 27.5514 64.1757 27.2277 63.9572C27.2018 63.9412 27.1758 63.9213 27.1525 63.9053C26.976 63.7874 26.8028 63.6669 26.6297 63.543C26.4565 63.4218 26.2834 63.2979 26.1136 63.1674C25.9438 63.0435 25.7739 62.913 25.6074 62.7785C25.4702 62.6739 25.3364 62.566 25.2025 62.4521C24.9867 62.279 24.7749 62.0992 24.5658 61.9167C24.4253 61.7955 24.2881 61.6716 24.1509 61.5477L24.1476 61.5444C23.9911 61.4039 23.8339 61.26 23.6841 61.1102C23.5302 60.9663 23.3771 60.8198 23.2266 60.666C22.9329 60.375 22.6452 60.0746 22.3675 59.7676C22.2203 59.6044 22.0704 59.4379 21.9265 59.2681C21.6488 58.9511 21.3811 58.6281 21.1227 58.2978C20.9662 58.0953 20.8091 57.8929 20.6559 57.6838C20.5647 57.5632 20.4761 57.442 20.3915 57.3181C20.3622 57.2788 20.3329 57.2396 20.3036 57.1976C20.1957 57.0471 20.0878 56.8939 19.9866 56.7368C19.882 56.5862 19.7841 56.4364 19.6862 56.2826C19.5457 56.0668 19.4085 55.8517 19.2746 55.6292C19.0589 55.2763 18.8531 54.9173 18.6573 54.5517C18.2717 53.8498 17.9227 53.1245 17.6024 52.3826C17.5304 52.2128 17.4552 52.0396 17.3866 51.8665C17.3833 51.8598 17.3799 51.8505 17.3766 51.8405C17.3247 51.71 17.272 51.5828 17.2228 51.4516C17.1768 51.3344 17.1315 51.2132 17.0856 51.092C17.0396 50.9681 16.9943 50.8402 16.9517 50.713C16.8865 50.5332 16.8245 50.3534 16.7652 50.1709C16.7066 49.9878 16.6474 49.8053 16.5921 49.6188C16.5821 49.6022 16.5788 49.5829 16.5754 49.5635C16.5202 49.3871 16.4676 49.2046 16.4189 49.0248C16.3637 48.8323 16.3111 48.6398 16.2625 48.4434C16.1153 47.8587 15.9847 47.2673 15.8768 46.6699C15.8409 46.4708 15.8082 46.2716 15.7756 46.0692C15.743 45.8701 15.7137 45.6676 15.687 45.4652C13.6099 44.7432 11.6665 43.7343 9.90234 42.4862C10.2027 59.9441 24.4466 73.9981 41.9731 73.9981C59.6888 73.9981 74.0532 59.6371 74.0532 41.9182C74.0532 24.3665 59.9465 10.1026 42.45 9.85156ZM15.5692 39.4101C15.5891 39.2143 15.6084 39.0179 15.6311 38.8221C15.6537 38.6263 15.6804 38.4305 15.7063 38.2373C15.7323 38.0415 15.7616 37.8491 15.7943 37.6559C15.8236 37.4635 15.8595 37.2703 15.8922 37.0812C16.036 36.3133 16.2091 35.5595 16.4183 34.8176C16.4675 34.6344 16.5229 34.4486 16.5781 34.2655V34.2621C16.6207 34.1216 16.666 33.9784 16.712 33.8346C16.7286 33.7727 16.7479 33.7107 16.7706 33.6514C16.8225 33.4909 16.8785 33.3311 16.9338 33.1713C16.9797 33.0308 17.0283 32.8902 17.0842 32.7531C17.1169 32.6651 17.1495 32.5799 17.1822 32.492C17.2994 32.1816 17.4239 31.878 17.5511 31.5743C17.7016 31.218 17.8581 30.8657 18.0279 30.5194C18.1065 30.3529 18.1878 30.1897 18.2697 30.0266C18.319 29.922 18.3742 29.8174 18.4295 29.7162C18.4915 29.5923 18.5567 29.4678 18.622 29.3473C18.6446 29.3046 18.6679 29.2627 18.6939 29.2201C18.7818 29.0536 18.8737 28.8937 18.9683 28.7299C19.0536 28.5827 19.1381 28.4362 19.2234 28.2924C19.302 28.1652 19.3772 28.0406 19.4551 27.9168C19.527 27.8022 19.599 27.6883 19.6742 27.5738C19.9779 27.1003 20.2982 26.6368 20.6346 26.1859C20.7458 26.0327 20.8597 25.8855 20.9742 25.735C21.0628 25.6205 21.1507 25.5066 21.242 25.3954C21.5063 25.0624 21.7807 24.7327 22.0684 24.4124C22.183 24.2785 22.3035 24.148 22.4214 24.0175C22.6731 23.7398 22.9309 23.4687 23.1986 23.2043C23.3065 23.0964 23.4143 22.9886 23.5256 22.884C23.6954 22.7175 23.8652 22.5543 24.0384 22.3972C24.1656 22.28 24.2934 22.1654 24.424 22.0509C24.6557 21.8417 24.8942 21.6426 25.1326 21.4435C25.2531 21.3456 25.3777 21.2444 25.5015 21.1465C26.037 20.7216 26.5857 20.3167 27.1545 19.9351C27.3143 19.8238 27.4781 19.716 27.6446 19.6114C27.7752 19.5268 27.9057 19.4449 28.0369 19.363C28.1348 19.3011 28.236 19.2385 28.3373 19.1799C28.4844 19.0886 28.631 19 28.7815 18.9181C28.9679 18.8069 29.1537 18.7057 29.3402 18.6045C29.5294 18.4999 29.7192 18.3987 29.9083 18.3041C30.0974 18.2062 30.2906 18.1083 30.483 18.0171C30.4964 18.0104 30.5057 18.0071 30.5157 18.0004C30.8553 17.8372 31.2016 17.6807 31.5513 17.5302C31.8123 17.419 32.0741 17.3118 32.3384 17.2099C32.5116 17.138 32.6881 17.0727 32.8646 17.0108C33.0184 16.9522 33.1749 16.8962 33.3314 16.8443C33.41 16.815 33.4913 16.789 33.5732 16.7597C33.7463 16.7044 33.9195 16.6452 34.0959 16.5932C34.3017 16.5279 34.5109 16.466 34.72 16.4067C34.9291 16.3448 35.1382 16.2889 35.35 16.2336C35.5365 16.1876 35.7223 16.139 35.9121 16.0964C36.0526 16.0638 36.1964 16.0311 36.337 16.0018C36.3989 15.9852 36.4642 15.9725 36.5261 15.9592C36.634 15.9399 36.7419 15.9166 36.8491 15.8939C37.0389 15.858 37.228 15.822 37.4172 15.7894C37.5544 15.7661 37.6882 15.7434 37.8254 15.7241C37.9693 15.6981 38.1131 15.6782 38.2563 15.6589C38.6286 15.6069 39.0042 15.561 39.3798 15.525C38.4455 13.6243 37.1788 11.9128 35.6563 10.4656C22.9768 13.0003 12.9958 23.0079 10.5004 35.7C11.9502 37.2151 13.6651 38.4791 15.5692 39.4101Z" fill="#9E9E9E"/>
<path d="M46.3666 19.0818C44.9428 18.8074 43.4763 18.6635 41.9738 18.6635C41.507 18.6635 41.0428 18.6769 40.586 18.7062C40.9942 20.1993 41.21 21.7663 41.21 23.3833C41.21 33.2144 33.2109 41.2134 23.3798 41.2134C21.7794 41.2134 20.231 41.001 18.7546 40.6027H18.7512C18.7286 41.0403 18.7153 41.4778 18.7153 41.922C18.7153 43.4471 18.8625 44.9402 19.1462 46.3834C20.5181 46.6351 21.932 46.7656 23.3791 46.7656C36.2938 46.7656 46.7616 36.2979 46.7616 23.3833C46.7616 21.9142 46.6244 20.4763 46.3666 19.0818ZM23.3791 0.000976562C10.4678 0.000976562 0 10.4694 0 23.3833C0 29.762 2.55403 35.5433 6.69574 39.7596C6.84625 37.2122 7.27047 34.7135 7.94644 32.3027C6.42402 29.6767 5.55227 26.6293 5.55227 23.3826C5.55227 13.5515 13.548 5.55253 23.3791 5.55253C26.6091 5.55253 29.6433 6.41497 32.2599 7.92406C34.6701 7.23811 37.1622 6.80989 39.7102 6.65005C35.4999 2.53567 29.7352 0.000976562 23.3791 0.000976562Z" fill="#9E9E9E"/>
</svg>
