<svg width="40" height="40" viewBox="0 0 40 40" fill="none" xmlns="http://www.w3.org/2000/svg">
<g clip-path="url(#clip0_226_588)">
<path d="M6.62935 40L0 33.3707L26.0742 7.29656L32.7035 13.9259L6.62935 40ZM4.41951 33.3707L6.62935 35.5805L13.2587 28.9511L11.0489 26.7413L4.41951 33.3707ZM13.2587 24.5315L15.4685 26.7414L28.284 13.9259L26.0743 11.7161L13.2587 24.5315ZM36.8749 28.1259H33.7498V25.0008H30.6247V21.8757H33.7498V18.7506H36.8749V21.8757H40V25.0008H36.8749V28.1259ZM36.8749 9.37529H33.7498V6.2502H30.6247V3.1251H33.7498V0H36.8749V3.1251H40V6.2502H36.8749V9.37529ZM18.1243 9.37529H14.9992V6.2502H11.8741V3.1251H14.9992V0H18.1243V3.1251H21.2494V6.2502H18.1243V9.37529Z" fill="#FF0000"/>
</g>
<defs>
<clipPath id="clip0_226_588">
<rect width="40" height="40" fill="white"/>
</clipPath>
</defs>
</svg>
